<svg width="389" height="389" viewBox="0 0 389 389" fill="none" xmlns="http://www.w3.org/2000/svg">
<path d="M0 102.053C0 45.6907 45.6907 0 102.053 0H286.181C342.543 0 388.234 45.6907 388.234 102.053V286.181C388.234 342.543 342.543 388.234 286.181 388.234H102.053C45.6907 388.234 0 342.543 0 286.181V102.053Z" fill="url(#paint0_linear_687_7311)"/>
<path d="M312.404 140.024C300.31 128.129 285.016 120.877 268.143 119.025C266.284 102.435 258.929 87.4092 246.835 75.5141C232.79 61.6887 214.097 54.0717 194.21 54.0587H194.157C174.297 54.0587 155.618 61.6496 141.559 75.4489C129.451 87.3309 122.07 102.356 120.185 118.934C103.298 120.76 88.0042 127.985 75.8967 139.868C61.8244 153.667 54.0714 172.031 54.0581 191.569C54.0448 211.107 61.7713 229.472 75.8303 243.297C87.9245 255.205 103.218 262.444 120.092 264.296C121.95 280.887 129.305 295.912 141.399 307.807C155.445 321.633 174.137 329.25 194.024 329.263H194.077C213.938 329.263 232.617 321.672 246.676 307.872C258.783 295.99 266.165 280.978 268.05 264.387C284.937 262.561 300.23 255.336 312.338 243.454C326.41 229.654 334.163 211.29 334.176 191.752C334.176 172.214 326.463 153.849 312.404 140.024ZM302.009 233.306C292.743 242.397 281.087 248.11 268.222 249.897C266.749 232.759 259.155 216.664 246.742 204.443L245.8 203.517L235.471 213.651L236.414 214.577C246.158 224.163 252.225 236.75 253.593 250.171C239.932 248.801 227.134 242.828 217.39 233.241L216.447 232.315L206.119 242.449L207.061 243.375C219.487 255.597 235.856 263.083 253.301 264.544C251.468 277.183 245.64 288.621 236.374 297.712C225.076 308.798 210.061 314.902 194.091 314.902H194.051C178.067 314.902 163.039 308.772 151.754 297.66C142.501 288.556 136.686 277.104 134.868 264.466C152.312 263.018 168.694 255.557 181.134 243.362L182.076 242.436L171.761 232.289L170.818 233.215C161.061 242.789 148.25 248.749 134.589 250.093C135.983 236.671 142.063 224.098 151.821 214.525L152.763 213.599L142.448 203.451L141.505 204.377C129.066 216.572 121.446 232.667 119.959 249.806C107.095 248.006 95.4519 242.28 86.1987 233.176C74.901 222.063 68.688 207.299 68.7013 191.595C68.7013 175.892 74.9409 161.127 86.2518 150.041C95.5183 140.95 107.174 135.237 120.039 133.45C121.512 150.589 129.106 166.684 141.519 178.905L142.461 179.831L152.79 169.696L151.847 168.77C142.103 159.184 136.036 146.598 134.668 133.177C148.329 134.546 161.127 140.52 170.871 150.106L171.814 151.032L182.143 140.898L181.2 139.972C168.787 127.751 152.405 120.264 134.961 118.803C136.793 106.165 142.621 94.7262 151.887 85.6354C163.185 74.549 178.2 68.4449 194.17 68.4449H194.21C210.194 68.4449 225.222 74.575 236.507 85.6875C245.76 94.7914 251.575 106.243 253.393 118.882C235.949 120.329 219.567 127.79 207.127 139.985L206.185 140.911L216.5 151.058L217.443 150.132C227.2 140.559 240.012 134.598 253.672 133.255C252.278 146.676 246.198 159.249 236.44 168.823L235.498 169.749L245.813 179.896L246.756 178.97C259.195 166.775 266.815 150.693 268.302 133.555C281.166 135.355 292.809 141.08 302.062 150.184C313.36 161.297 319.573 176.061 319.56 191.765C319.56 207.469 313.307 222.233 301.996 233.319L302.009 233.306Z" fill="white"/>
<defs>
<linearGradient id="paint0_linear_687_7311" x1="194.117" y1="0" x2="194.117" y2="388.234" gradientUnits="userSpaceOnUse">
<stop stop-color="#FFAD0D"/>
<stop offset="1" stop-color="#FF8000"/>
</linearGradient>
</defs>
</svg>
