<svg width="16" height="16" viewBox="0 0 16 16" fill="none" xmlns="http://www.w3.org/2000/svg">
<g clip-path="url(#clip0_687_7792)">
<path d="M14.707 12.375C14.707 12.7065 14.5753 13.0245 14.3409 13.2589C14.1065 13.4933 13.7886 13.625 13.457 13.625H2.20703C1.87551 13.625 1.55757 13.4933 1.32315 13.2589C1.08873 13.0245 0.957031 12.7065 0.957031 12.375V5.5C0.957031 5.16848 1.08873 4.85054 1.32315 4.61612C1.55757 4.3817 1.87551 4.25 2.20703 4.25H4.70703L5.95703 2.375H9.70703L10.957 4.25H13.457C13.7886 4.25 14.1065 4.3817 14.3409 4.61612C14.5753 4.85054 14.707 5.16848 14.707 5.5V12.375Z" stroke="#343A40" stroke-linecap="round" stroke-linejoin="round"/>
<path d="M7.83203 11.125C9.21274 11.125 10.332 10.0057 10.332 8.625C10.332 7.24429 9.21274 6.125 7.83203 6.125C6.45132 6.125 5.33203 7.24429 5.33203 8.625C5.33203 10.0057 6.45132 11.125 7.83203 11.125Z" stroke="#343A40" stroke-linecap="round" stroke-linejoin="round"/>
</g>
<defs>
<clipPath id="clip0_687_7792">
<rect width="15" height="15" fill="white" transform="translate(0.332031 0.5)"/>
</clipPath>
</defs>
</svg>
