<svg width="21" height="20" viewBox="0 0 21 20" fill="none" xmlns="http://www.w3.org/2000/svg">
<path d="M3.33203 15V10C3.33203 8.01088 4.12221 6.10322 5.52873 4.6967C6.93525 3.29018 8.84291 2.5 10.832 2.5C12.8212 2.5 14.7288 3.29018 16.1353 4.6967C17.5419 6.10322 18.332 8.01088 18.332 10V15" stroke="#343A40" stroke-linecap="round" stroke-linejoin="round"/>
<path d="M18.332 15.8334C18.332 16.2754 18.1564 16.6994 17.8439 17.0119C17.5313 17.3245 17.1074 17.5001 16.6654 17.5001H15.832C15.39 17.5001 14.9661 17.3245 14.6535 17.0119C14.341 16.6994 14.1654 16.2754 14.1654 15.8334V13.3334C14.1654 12.8914 14.341 12.4675 14.6535 12.1549C14.9661 11.8423 15.39 11.6667 15.832 11.6667H18.332V15.8334ZM3.33203 15.8334C3.33203 16.2754 3.50763 16.6994 3.82019 17.0119C4.13275 17.3245 4.55667 17.5001 4.9987 17.5001H5.83203C6.27406 17.5001 6.69798 17.3245 7.01054 17.0119C7.3231 16.6994 7.4987 16.2754 7.4987 15.8334V13.3334C7.4987 12.8914 7.3231 12.4675 7.01054 12.1549C6.69798 11.8423 6.27406 11.6667 5.83203 11.6667H3.33203V15.8334Z" stroke="#343A40" stroke-linecap="round" stroke-linejoin="round"/>
</svg>
